#!OML:ASF H:\MichaelJackson\Top Level 1\Subject 1\Session 1\male.ASF
:FULLY-SPECIFIED
:DEGREES
1
root -13.6575 16.9862 -35.1283 9.06958 -2.4795 -1.15334
lowerback -9.34409 4.51606 -2.6804
upperback -1.06532 6.16868 2.86622
thorax 3.50512 3.02099 5.21448
lowerneck -14.1861 -4.14823 -3.45251
upperneck 4.85875 -5.04142 1.63988
head 3.85768 -2.46649 0.683175
rclavicle -2.65378e-014 -1.35174e-014
rhumerus -40.5559 0.109202 -83.1195
rradius 37.1546
rwrist 14.8299
rhand -26.2302 -15.6559
rfingers 7.12502
rthumb 0.323388 -45.6354
lclavicle -2.65378e-014 -1.35174e-014
lhumerus -39.8723 -9.69927 96.9151
lradius 41.3312
lwrist 4.58457
lhand -8.18747 2.0016
lfingers 7.12502
lthumb 17.7284 31.2134
rfemur -19.0343 1.13887 23.1081
rtibia 34.1764
rfoot -27.2667 -21.229
rtoes 1.33246
lfemur -19.9534 -5.89983 -20.3365
ltibia 35.5618
lfoot -29.2042 26.3857
ltoes 12.032
2
root -13.6614 16.9876 -35.1314 9.1693 -2.34439 -1.14714
lowerback -9.36299 4.45582 -2.78281
upperback -1.16007 6.09847 2.90522
thorax 3.40901 2.98945 5.30074
lowerneck -13.9133 -4.12589 -3.50936
upperneck 4.40742 -5.00836 1.61296
head 4.11284 -2.4584 0.775059
rclavicle 8.95525e-014 3.26007e-014
rhumerus -40.8228 0.104423 -83.0802
rradius 37.2444
rwrist 15.1441
rhand -26.4872 -15.5807
rfingers 7.12502
rthumb 0.0752065 -45.5604
lclavicle 8.95525e-014 3.26007e-014
lhumerus -40.0031 -9.61846 96.9417
lradius 41.3724
lwrist 4.58271
lhand -8.19834 1.97126
lfingers 7.12502
lthumb 17.718 31.184
rfemur -19.1737 0.530258 23.1597
rtibia 34.1706
rfoot -27.2716 -20.8446
rtoes 1.19173
lfemur -20.11 -5.60189 -20.3111
ltibia 35.5744
lfoot -29.0613 26.0597
ltoes 11.7294
3
root -13.6661 16.9864 -35.1254 9.07243 -2.20907 -1.13357
lowerback -9.33546 4.39544 -2.8867
upperback -1.16435 6.02679 2.95156
thorax 3.38116 2.95355 5.39673
lowerneck -13.7693 -4.11896 -3.47247
upperneck 4.38033 -5.00504 1.54201
head 4.07035 -2.46046 0.747558
rclavicle 3.98315e-014 1.59028e-014
rhumerus -40.9417 0.173387 -83.0765
rradius 37.2221
rwrist 15.0732
rhand -26.4766 -15.4866
rfingers 7.12502
rthumb 0.0854067 -45.4664
lclavicle 3.98315e-014 1.59028e-014
lhumerus -40.0409 -9.57718 96.9764
lradius 41.3095
lwrist 4.58495
lhand -8.17233 2.03373
lfingers 7.12502
lthumb 17.743 31.2442
rfemur -18.9865 0.82644 23.1812
rtibia 34.1377
rfoot -27.0667 -21.2442
rtoes 0.675577
lfemur -20.0028 -5.36979 -20.3035
ltibia 35.5864
lfoot -29.0005 25.7595
ltoes 11.2968
4
root -13.6679 16.99 -35.1383 9.29564 -2.05935 -1.12821
lowerback -9.36522 4.33074 -3.01578
upperback -1.31233 5.95282 3.02194
thorax 3.23045 2.92295 5.52847
lowerneck -13.5843 -4.11547 -3.51479
upperneck 4.34492 -4.99549 1.48762
head 4.02 -2.46034 0.74119
rclavicle -1.69961e-014 -3.89618e-014
rhumerus -41.2315 0.435903 -83.0162
rradius 35.1854
rwrist 21.8271
rhand -32.1841 -12.5315
rfingers 7.12502
rthumb -5.42644 -42.442
lclavicle -1.69961e-014 -3.89618e-014
lhumerus -40.142 -9.46536 97.0794
lradius 41.3171
lwrist 4.54195
lhand -8.25036 1.86679
lfingers 7.12502
lthumb 17.6679 31.0841
rfemur -19.2359 1.31992 23.1795
rtibia 34.1176
rfoot -26.7512 -21.8007
rtoes 0.711082
lfemur -20.3416 -5.13058 -20.267
ltibia 35.5944
lfoot -28.9587 25.4051
ltoes 11.2689
5
root -13.6721 16.9914 -35.1444 9.3917 -1.92976 -1.14704
lowerback -9.3222 4.28249 -3.02781
upperback -1.4066 5.88977 3.02084
thorax 3.11431 2.89695 5.51774
lowerneck -13.4062 -4.09361 -3.49259
upperneck 4.24182 -4.97656 1.49187
head 3.94638 -2.45094 0.744256
rclavicle 8.36883e-014 2.78299e-014
rhumerus -41.0997 0.367137 -83.0569
rradius 37.2444
rwrist 14.7185
rhand -26.2017 -15.69
rfingers 7.12502
rthumb 0.350972 -45.6695
lclavicle 8.36883e-014 2.78299e-014
lhumerus -40.2279 -9.41829 97.0303
lradius 41.3682
lwrist 4.51813
lhand -8.16802 1.98152
lfingers 7.12502
lthumb 17.7472 31.1917
rfemur -19.3352 1.47226 23.2295
rtibia 34.0958
rfoot -26.6245 -22.0306
rtoes 0.162248
lfemur -20.5067 -4.82135 -20.2088
ltibia 35.6004
lfoot -28.9342 25.001
ltoes 11.1361
6
root -13.6755 16.9924 -35.1459 9.41921 -1.79783 -1.13766
lowerback -9.28317 4.22687 -3.10464
upperback -1.4773 5.82234 3.05056
thorax 3.01574 2.86725 5.57706
lowerneck -13.2451 -4.08792 -3.45934
upperneck 4.221 -4.97552 1.42655
head 3.90344 -2.45387 0.719546
rclavicle -3.1731e-014 -2.62396e-014
rhumerus -41.2839 0.316989 -83.0533
rradius 37.2391
rwrist 14.883
rhand -26.331 -15.4772
rfingers 7.12502
rthumb 0.226025 -45.4569
lclavicle -3.1731e-014 -2.62396e-014
lhumerus -40.3709 -9.36197 97.0448
lradius 41.4289
lwrist 4.48347
lhand -8.21015 1.90398
lfingers 7.12502
lthumb 17.7066 31.1178
rfemur -19.3688 0.927016 23.2752
rtibia 34.0746
rfoot -26.6001 -21.6943
rtoes -0.0329236
lfemur -20.5642 -4.69352 -20.1886
ltibia 35.6087
lfoot -28.8557 24.7796
ltoes 10.9448
7
root -13.6796 16.9939 -35.1511 9.53767 -1.66539 -1.15124
lowerback -9.31791 4.16969 -3.18379
upperback -1.5626 5.75373 3.09962
thorax 2.94085 2.8366 5.66424
lowerneck -13.0352 -4.05852 -3.50657
upperneck 4.12704 -4.93698 1.44009
head 3.82942 -2.43585 0.740085
rclavicle 1.89591e-014 -2.38542e-015
rhumerus -40.8886 0.505213 -83.0155
rradius 36.7902
rwrist 14.7353
rhand -26.2898 -15.4931
rfingers 7.12502
rthumb 0.265823 -45.4726
lclavicle 1.89591e-014 -2.38542e-015
lhumerus -40.3126 -9.32792 97.1032
lradius 41.2587
lwrist 4.51255
lhand -8.25037 1.95194
lfingers 7.12502
lthumb 17.6679 31.1692
rfemur -19.4846 1.12315 23.3197
rtibia 34.0516
rfoot -26.3991 -21.9995
rtoes -0.197627
lfemur -20.7496 -4.42183 -20.1367
ltibia 35.6201
lfoot -28.8432 24.4377
ltoes 10.8162
8
root -13.6826 16.9948 -35.1535 9.57977 -1.51903 -1.16156
lowerback -9.26204 4.10816 -3.249
upperback -1.64056 5.67639 3.14859
thorax 2.82622 2.80298 5.73473
lowerneck -12.9167 -4.05177 -3.48344
upperneck 4.14173 -4.9304 1.3606
head 3.80751 -2.43674 0.711868
rclavicle 5.81445e-014 -5.56597e-015
rhumerus -41.2925 0.364547 -82.882
rradius 37.5066
rwrist 14.851
rhand -25.9457 -15.7491
rfingers 7.12502
rthumb 0.598229 -45.728
lclavicle 5.81445e-014 -5.56597e-015
lhumerus -40.0135 -9.92407 97.3635
lradius 40.5813
lwrist 5.11893
lhand -8.55285 1.80684
lfingers 7.12502
lthumb 17.3768 31.0501
rfemur -19.5231 1.09831 23.3656
rtibia 34.0325
rfoot -26.2116 -22.1377
rtoes -0.551434
lfemur -20.8374 -4.16877 -20.1034
ltibia 35.6318
lfoot -28.8574 24.0811
ltoes 10.6176
9
root -13.6862 16.9956 -35.1584 9.65916 -1.38636 -1.18286
lowerback -9.23016 4.06061 -3.23824
upperback -1.73702 5.61219 3.14574
thorax 2.71705 2.77649 5.71101
lowerneck -12.6693 -4.02788 -3.46464
upperneck 4.00717 -4.91165 1.37849
head 3.71035 -2.42696 0.721503
rclavicle -1.07592e-014 -1.51076e-014
rhumerus -42.1165 0.0552025 -82.9099
rradius 38.0338
rwrist 15.2315
rhand -26.0851 -15.6397
rfingers 7.12502
rthumb 0.463572 -45.619
lclavicle -1.07592e-014 -1.51076e-014
lhumerus -40.1414 -9.91813 97.3392
lradius 40.65
lwrist 5.13901
lhand -8.54256 1.90221
lfingers 7.12502
lthumb 17.3867 31.1446
rfemur -19.5754 1.3372 23.4056
rtibia 33.996
rfoot -26.1256 -22.4339
rtoes -0.959438
lfemur -20.9841 -4.02304 -20.0427
ltibia 35.6534
lfoot -28.7414 23.8617
ltoes 10.3208
10
root -13.6894 16.9948 -35.1612 9.73151 -1.26235 -1.11117
lowerback -9.23135 3.9943 -3.42257
upperback -1.81154 5.54122 3.19289
thorax 2.62588 2.74477 5.85297
lowerneck -12.5111 -4.01604 -3.49973
upperneck 3.96236 -4.89293 1.33592
head 3.6626 -2.42098 0.71814
rclavicle 1.55797e-014 -1.82882e-014
rhumerus -42.0542 0.782848 -82.9521
rradius 37.761
rwrist 14.5082
rhand -26.1174 -15.6121
rfingers 7.12502
rthumb 0.432336 -45.5914
lclavicle 1.55797e-014 -1.82882e-014
lhumerus -40.2162 -9.83526 97.4082
lradius 40.6502
lwrist 5.15853
lhand -8.57644 1.97889
lfingers 7.12502
lthumb 17.3541 31.2241
rfemur -19.6586 1.13166 23.3662
rtibia 33.9653
rfoot -26.0476 -22.4441
rtoes -1.35652
lfemur -21.1074 -3.80154 -20.0999
ltibia 35.6707
lfoot -28.8019 23.5372
ltoes 10.249
